<svg width="29" height="28" viewBox="0 0 29 28" fill="none" xmlns="http://www.w3.org/2000/svg">
<g opacity="0.6">
<rect x="4.80886" y="4.6" width="18.8" height="18.8" rx="1.9" stroke="#451E37" stroke-width="2.2"/>
<path d="M10.0069 18.1777V20.0589C10.0069 20.1663 10.0948 20.2543 10.2023 20.2543H11.375C11.4825 20.2543 11.5704 20.1663 11.5704 20.0589V18.1777C11.3237 18.2584 11.0623 18.2999 10.7887 18.2999C10.515 18.2999 10.2536 18.2559 10.0069 18.1777ZM11.5704 13.3406V7.94153C11.5704 7.83404 11.4825 7.74609 11.375 7.74609H10.2023C10.0948 7.74609 10.0069 7.83404 10.0069 7.94153V13.3406C10.2536 13.26 10.515 13.2184 10.7887 13.2184C11.0623 13.2184 11.3237 13.2624 11.5704 13.3406ZM10.0069 18.1777C10.2536 18.2584 10.515 18.2999 10.7887 18.2999C11.0623 18.2999 11.3237 18.2559 11.5704 18.1777C12.5916 17.8479 13.3294 16.8903 13.3294 15.7592C13.3294 14.628 12.5916 13.6704 11.5704 13.3406C11.3237 13.26 11.0623 13.2184 10.7887 13.2184C10.515 13.2184 10.2536 13.2624 10.0069 13.3406C8.98571 13.6704 8.24792 14.628 8.24792 15.7592C8.24792 16.8903 8.98571 17.8479 10.0069 18.1777ZM10.0093 15.3512C10.0167 15.3365 10.0264 15.3219 10.0338 15.3072V15.3048L10.0631 15.2608C10.0655 15.2559 10.068 15.2535 10.0704 15.2486C10.0777 15.2364 10.0875 15.2266 10.0948 15.2144C10.0973 15.2119 10.0997 15.207 10.1022 15.2046C10.1144 15.1899 10.1242 15.1777 10.1364 15.1655L10.1437 15.1582L10.173 15.1289L10.1828 15.1191C10.195 15.1069 10.2072 15.0971 10.2219 15.0849C10.2365 15.0727 10.2487 15.0629 10.2634 15.0531C10.2683 15.0507 10.2707 15.0482 10.2756 15.0458C10.2878 15.0385 10.2976 15.0287 10.3098 15.0214C10.3123 15.0189 10.3172 15.0165 10.3196 15.014C10.3343 15.0043 10.3489 14.9969 10.366 14.9872C10.3685 14.9847 10.3733 14.9847 10.3758 14.9823C10.388 14.975 10.4002 14.9701 10.4149 14.9627L10.4295 14.9554C10.4466 14.9481 10.4613 14.9408 10.4784 14.9359C10.4955 14.9285 10.5126 14.9236 10.5297 14.9188C10.5346 14.9163 10.5395 14.9163 10.5444 14.9139C10.559 14.909 10.5712 14.9065 10.5859 14.9041C10.5908 14.9041 10.5932 14.9017 10.5981 14.9017C10.6152 14.8968 10.6347 14.8943 10.6518 14.8919C10.6567 14.8919 10.6592 14.8919 10.6641 14.8894C10.6787 14.887 10.6934 14.887 10.708 14.8846H10.7227C10.7422 14.8846 10.7593 14.8821 10.7789 14.8821C10.7984 14.8821 10.8155 14.8821 10.8351 14.8846H10.8497C10.8644 14.8846 10.879 14.887 10.8937 14.8894C10.8986 14.8894 10.901 14.8894 10.9059 14.8919C10.923 14.8943 10.9426 14.8968 10.9597 14.9017C10.9645 14.9017 10.967 14.9041 10.9719 14.9041C10.9865 14.9065 11.0012 14.9114 11.0134 14.9139C11.0183 14.9163 11.0232 14.9163 11.0281 14.9188C11.0452 14.9236 11.0623 14.9285 11.0794 14.9359C11.0965 14.9408 11.1111 14.9481 11.1282 14.9554L11.1429 14.9627C11.1551 14.9676 11.1698 14.975 11.182 14.9823C11.1844 14.9847 11.1893 14.9847 11.1917 14.9872C11.2064 14.9945 11.2235 15.0043 11.2382 15.014C11.2406 15.0165 11.2455 15.0189 11.2479 15.0214C11.2602 15.0287 11.2724 15.036 11.2821 15.0458C11.287 15.0482 11.2895 15.0507 11.2944 15.0531C11.309 15.0629 11.3237 15.0751 11.3359 15.0849C11.3481 15.0947 11.3628 15.1069 11.375 15.1191L11.3847 15.1289L11.4141 15.1582L11.4214 15.1655C11.4336 15.1777 11.4458 15.1924 11.4556 15.2046C11.458 15.207 11.4605 15.2119 11.4629 15.2144C11.4727 15.2241 11.48 15.2364 11.4874 15.2486C11.4898 15.2535 11.4922 15.2559 11.4947 15.2608L11.524 15.3048C11.524 15.3048 11.524 15.3072 11.5264 15.3072C11.6079 15.4439 11.6509 15.6 11.651 15.7592C11.651 15.9057 11.6144 16.045 11.5509 16.1671C11.5435 16.1818 11.5338 16.1965 11.5264 16.2111C11.5264 16.2111 11.5264 16.2136 11.524 16.2136L11.4947 16.2575C11.4922 16.2624 11.4898 16.2649 11.4874 16.2697C11.48 16.282 11.4703 16.2917 11.4629 16.3039C11.4605 16.3064 11.458 16.3113 11.4556 16.3137C11.4434 16.3284 11.4336 16.3406 11.4214 16.3528L11.4141 16.3601L11.3847 16.3895L11.375 16.3992C11.3628 16.4114 11.3505 16.4212 11.3359 16.4334C11.3212 16.4456 11.309 16.4554 11.2944 16.4652C11.2895 16.4676 11.287 16.4701 11.2821 16.4725C11.2699 16.4798 11.2602 16.4896 11.2479 16.4969C11.2455 16.4994 11.2406 16.5018 11.2382 16.5043C11.2235 16.514 11.2088 16.5214 11.1917 16.5311C11.1893 16.5336 11.1844 16.5336 11.182 16.536C11.1698 16.5434 11.1575 16.5482 11.1429 16.5556L11.1282 16.5629C11.1111 16.5702 11.0965 16.5776 11.0794 16.5825C11.0623 16.5898 11.0452 16.5947 11.0281 16.5996C11.0232 16.602 11.0183 16.602 11.0134 16.6044C10.9988 16.6093 10.9865 16.6118 10.9719 16.6142C10.967 16.6142 10.9645 16.6167 10.9597 16.6167C10.9426 16.6215 10.923 16.624 10.9059 16.6264C10.901 16.6264 10.8986 16.6264 10.8937 16.6289C10.879 16.6313 10.8644 16.6313 10.8497 16.6338H10.8351C10.8155 16.6338 10.7984 16.6362 10.7789 16.6362C10.7593 16.6362 10.7422 16.6362 10.7227 16.6338H10.708C10.6934 16.6338 10.6787 16.6313 10.6641 16.6289C10.6592 16.6289 10.6567 16.6289 10.6518 16.6264C10.6347 16.624 10.6152 16.6215 10.5981 16.6167C10.5932 16.6167 10.5908 16.6142 10.5859 16.6142C10.5712 16.6118 10.5566 16.6069 10.5444 16.6044C10.5395 16.602 10.5346 16.602 10.5297 16.5996C10.5126 16.5947 10.4955 16.5898 10.4784 16.5825C10.4613 16.5776 10.4466 16.5702 10.4295 16.5629L10.4149 16.5556C10.4027 16.5507 10.388 16.5434 10.3758 16.536C10.3733 16.5336 10.3685 16.5336 10.366 16.5311C10.3514 16.5238 10.3343 16.514 10.3196 16.5043C10.3172 16.5018 10.3123 16.4994 10.3098 16.4969C10.2976 16.4896 10.2854 16.4823 10.2756 16.4725C10.2707 16.4701 10.2683 16.4676 10.2634 16.4652C10.2487 16.4554 10.2341 16.4432 10.2219 16.4334C10.2097 16.4237 10.195 16.4114 10.1828 16.3992L10.173 16.3895L10.1437 16.3601L10.1364 16.3528C10.1242 16.3406 10.1119 16.3259 10.1022 16.3137C10.0997 16.3113 10.0973 16.3064 10.0948 16.3039C10.0851 16.2942 10.0777 16.282 10.0704 16.2697C10.068 16.2649 10.0655 16.2624 10.0631 16.2575L10.0338 16.2136V16.2111C10.024 16.1965 10.0167 16.1818 10.0093 16.1671C9.94582 16.045 9.90917 15.9057 9.90917 15.7592C9.90917 15.6126 9.94582 15.4733 10.0093 15.3512Z" fill="#451E37"/>
<path d="M16.8473 14.6598V20.0589C16.8473 20.1663 16.9352 20.2543 17.0427 20.2543H18.2154C18.3229 20.2543 18.4108 20.1663 18.4108 20.0589V14.6598C18.1641 14.7404 17.9027 14.782 17.629 14.782C17.3554 14.782 17.094 14.738 16.8473 14.6598ZM18.4108 9.82265V7.94153C18.4108 7.83404 18.3229 7.74609 18.2154 7.74609H17.0427C16.9352 7.74609 16.8473 7.83404 16.8473 7.94153V9.82265C17.094 9.74203 17.3554 9.7005 17.629 9.7005C17.9027 9.7005 18.1641 9.74447 18.4108 9.82265ZM16.8473 14.6598C17.094 14.7404 17.3554 14.782 17.629 14.782C17.9027 14.782 18.1641 14.738 18.4108 14.6598C19.432 14.33 20.1698 13.3723 20.1698 12.2412C20.1698 11.1101 19.432 10.1525 18.4108 9.82265C18.1641 9.74203 17.9027 9.7005 17.629 9.7005C17.3554 9.7005 17.094 9.74447 16.8473 9.82265C15.8261 10.1525 15.0883 11.1101 15.0883 12.2412C15.0883 13.3723 15.8261 14.33 16.8473 14.6598ZM16.8497 11.8332C16.8571 11.8186 16.8668 11.8039 16.8742 11.7893V11.7868L16.9035 11.7429C16.9059 11.738 16.9084 11.7355 16.9108 11.7306C16.9181 11.7184 16.9279 11.7087 16.9352 11.6964C16.9377 11.694 16.9401 11.6891 16.9426 11.6867C16.9548 11.672 16.9645 11.6598 16.9768 11.6476L16.9841 11.6402L17.0134 11.6109L17.0232 11.6012C17.0354 11.5889 17.0476 11.5792 17.0623 11.567C17.0769 11.5547 17.0891 11.545 17.1038 11.5352C17.1087 11.5328 17.1111 11.5303 17.116 11.5279C17.1282 11.5205 17.138 11.5108 17.1502 11.5034C17.1527 11.501 17.1575 11.4986 17.16 11.4961C17.1746 11.4863 17.1893 11.479 17.2064 11.4692C17.2088 11.4668 17.2137 11.4668 17.2162 11.4644C17.2284 11.457 17.2406 11.4521 17.2553 11.4448L17.2699 11.4375C17.287 11.4301 17.3017 11.4228 17.3188 11.4179C17.3359 11.4106 17.353 11.4057 17.3701 11.4008C17.375 11.3984 17.3799 11.3984 17.3847 11.3959C17.3994 11.3911 17.4116 11.3886 17.4263 11.3862C17.4312 11.3862 17.4336 11.3837 17.4385 11.3837C17.4556 11.3788 17.4751 11.3764 17.4922 11.374C17.4971 11.374 17.4996 11.374 17.5045 11.3715C17.5191 11.3691 17.5338 11.3691 17.5484 11.3666H17.5631C17.5826 11.3666 17.5997 11.3642 17.6193 11.3642C17.6388 11.3642 17.6559 11.3642 17.6755 11.3666H17.6901C17.7048 11.3666 17.7194 11.3691 17.7341 11.3715C17.739 11.3715 17.7414 11.3715 17.7463 11.374C17.7634 11.3764 17.783 11.3788 17.8001 11.3837C17.8049 11.3837 17.8074 11.3862 17.8123 11.3862C17.8269 11.3886 17.8416 11.3935 17.8538 11.3959C17.8587 11.3984 17.8636 11.3984 17.8685 11.4008C17.8856 11.4057 17.9027 11.4106 17.9198 11.4179C17.9369 11.4228 17.9515 11.4301 17.9686 11.4375L17.9833 11.4448C17.9955 11.4497 18.0102 11.457 18.0224 11.4644C18.0248 11.4668 18.0297 11.4668 18.0321 11.4692C18.0468 11.4766 18.0639 11.4863 18.0786 11.4961C18.081 11.4986 18.0859 11.501 18.0883 11.5034C18.1005 11.5108 18.1128 11.5181 18.1225 11.5279C18.1274 11.5303 18.1299 11.5328 18.1347 11.5352C18.1494 11.545 18.1641 11.5572 18.1763 11.567C18.1885 11.5767 18.2032 11.5889 18.2154 11.6012L18.2251 11.6109L18.2545 11.6402L18.2618 11.6476C18.274 11.6598 18.2862 11.6744 18.296 11.6867C18.2984 11.6891 18.3009 11.694 18.3033 11.6964C18.3131 11.7062 18.3204 11.7184 18.3277 11.7306C18.3302 11.7355 18.3326 11.738 18.3351 11.7429L18.3644 11.7868V11.7893C18.4458 11.926 18.4889 12.0821 18.489 12.2412C18.489 12.3878 18.4523 12.5271 18.3888 12.6492C18.3815 12.6639 18.3717 12.6785 18.3644 12.6932V12.6956L18.3351 12.7396C18.3326 12.7445 18.3302 12.7469 18.3277 12.7518C18.3204 12.764 18.3106 12.7738 18.3033 12.786C18.3009 12.7885 18.2984 12.7933 18.296 12.7958C18.2838 12.8104 18.274 12.8227 18.2618 12.8349L18.2545 12.8422L18.2251 12.8715L18.2154 12.8813C18.2032 12.8935 18.1909 12.9033 18.1763 12.9155C18.1616 12.9277 18.1494 12.9375 18.1347 12.9473C18.1299 12.9497 18.1274 12.9521 18.1225 12.9546C18.1103 12.9619 18.1005 12.9717 18.0883 12.979C18.0859 12.9815 18.081 12.9839 18.0786 12.9863C18.0639 12.9961 18.0492 13.0034 18.0321 13.0132C18.0297 13.0157 18.0248 13.0157 18.0224 13.0181C18.0102 13.0254 17.9979 13.0303 17.9833 13.0376L17.9686 13.045C17.9515 13.0523 17.9369 13.0596 17.9198 13.0645C17.9027 13.0719 17.8856 13.0767 17.8685 13.0816C17.8636 13.0841 17.8587 13.0841 17.8538 13.0865C17.8391 13.0914 17.8269 13.0938 17.8123 13.0963C17.8074 13.0963 17.8049 13.0987 17.8001 13.0987C17.783 13.1036 17.7634 13.1061 17.7463 13.1085C17.7414 13.1085 17.739 13.1085 17.7341 13.1109C17.7194 13.1134 17.7048 13.1134 17.6901 13.1158H17.6755C17.6559 13.1158 17.6388 13.1183 17.6193 13.1183C17.5997 13.1183 17.5826 13.1183 17.5631 13.1158H17.5484C17.5338 13.1158 17.5191 13.1134 17.5045 13.1109C17.4996 13.1109 17.4971 13.1109 17.4922 13.1085C17.4751 13.1061 17.4556 13.1036 17.4385 13.0987C17.4336 13.0987 17.4312 13.0963 17.4263 13.0963C17.4116 13.0938 17.397 13.089 17.3847 13.0865C17.3799 13.0841 17.375 13.0841 17.3701 13.0816C17.353 13.0767 17.3359 13.0719 17.3188 13.0645C17.3017 13.0596 17.287 13.0523 17.2699 13.045L17.2553 13.0376C17.2431 13.0328 17.2284 13.0254 17.2162 13.0181C17.2137 13.0157 17.2088 13.0157 17.2064 13.0132C17.1917 13.0059 17.1746 12.9961 17.16 12.9863C17.1575 12.9839 17.1527 12.9815 17.1502 12.979C17.138 12.9717 17.1258 12.9644 17.116 12.9546C17.1111 12.9521 17.1087 12.9497 17.1038 12.9473C17.0891 12.9375 17.0745 12.9253 17.0623 12.9155C17.0501 12.9057 17.0354 12.8935 17.0232 12.8813L17.0134 12.8715L16.9841 12.8422L16.9768 12.8349C16.9645 12.8227 16.9523 12.808 16.9426 12.7958C16.9401 12.7933 16.9377 12.7885 16.9352 12.786C16.9255 12.7762 16.9181 12.764 16.9108 12.7518C16.9084 12.7469 16.9059 12.7445 16.9035 12.7396L16.8742 12.6956V12.6932C16.8644 12.6785 16.8571 12.6639 16.8497 12.6492C16.7862 12.5271 16.7496 12.3878 16.7496 12.2412C16.7496 12.0946 16.7862 11.9554 16.8497 11.8332Z" fill="#451E37"/>
</g>
</svg>
