<svg width="21" height="20" viewBox="0 0 21 20" fill="none" xmlns="http://www.w3.org/2000/svg">
<path d="M14.2089 0H6.20886C2.89986 0 0.208862 2.691 0.208862 6V19C0.208862 19.2652 0.314219 19.5196 0.501755 19.7071C0.689292 19.8946 0.943646 20 1.20886 20H14.2089C17.5179 20 20.2089 17.309 20.2089 14V6C20.2089 2.691 17.5179 0 14.2089 0ZM18.2089 14C18.2089 16.206 16.4149 18 14.2089 18H2.20886V6C2.20886 3.794 4.00286 2 6.20886 2H14.2089C16.4149 2 18.2089 3.794 18.2089 6V14Z" fill="#451E37"/>
<path d="M5.20886 7.5C5.20886 7.22386 5.43272 7 5.70886 7H14.7089C14.985 7 15.2089 7.22386 15.2089 7.5V8.5C15.2089 8.77614 14.985 9 14.7089 9H5.70886C5.43272 9 5.20886 8.77614 5.20886 8.5V7.5ZM5.20886 11.5C5.20886 11.2239 5.43272 11 5.70886 11H11.7089C11.985 11 12.2089 11.2239 12.2089 11.5V12.5C12.2089 12.7761 11.985 13 11.7089 13H5.70886C5.43272 13 5.20886 12.7761 5.20886 12.5V11.5Z" fill="#451E37"/>
</svg>
