<svg width="23" height="24" viewBox="0 0 23 24" fill="none" xmlns="http://www.w3.org/2000/svg">
<path d="M19.7233 22.0625L2.69444 22.0625M19.7233 22.0625C20.5783 22.0625 21.2714 21.372 21.2714 20.5202V12.5548C21.2714 11.7803 20.9789 11.0342 20.4522 10.4646L13.4858 2.93197C12.2596 1.60602 10.1582 1.60601 8.93188 2.93196L1.96554 10.4646C1.43879 11.0341 1.14636 11.7803 1.14636 12.5547L1.14636 20.5202C1.14636 21.372 1.83946 22.0625 2.69444 22.0625M19.7233 22.0625H13.531M2.69444 22.0625L8.88675 22.0625M13.531 22.0625H8.88675M13.531 22.0625C13.9585 22.0625 14.305 21.7172 14.305 21.2913L14.305 14.3509C14.305 13.925 13.9585 13.5797 13.531 13.5797L8.88675 13.5797C8.45926 13.5797 8.11271 13.925 8.11271 14.3509L8.11271 21.2913C8.11271 21.7172 8.45926 22.0625 8.88675 22.0625" stroke="#451E37" stroke-width="2.2" stroke-linecap="round" stroke-linejoin="round"/>
</svg>
