<svg width="29" height="28" viewBox="0 0 29 28" fill="none" xmlns="http://www.w3.org/2000/svg">
<g opacity="0.6">
<path fill-rule="evenodd" clip-rule="evenodd" d="M13.8815 8.31052C13.8815 8.58667 13.6576 8.81052 13.3815 8.81052L8.08649 8.81053C7.81034 8.81053 7.58649 8.58667 7.58649 8.31052L7.58649 7.12305C7.58649 6.8469 7.81034 6.62305 8.08649 6.62305L13.3815 6.62305C13.6576 6.62305 13.8815 6.8469 13.8815 7.12305L13.8815 8.31052Z" fill="#451E37"/>
<path fill-rule="evenodd" clip-rule="evenodd" d="M16.4731 13.4043C16.4731 13.6804 16.2493 13.9043 15.9731 13.9043L8.08649 13.9043C7.81034 13.9043 7.58649 13.6804 7.58649 13.4043L7.58649 12.2168C7.58649 11.9407 7.81034 11.7168 8.08649 11.7168L15.9731 11.7168C16.2493 11.7168 16.4731 11.9407 16.4731 12.2168L16.4731 13.4043Z" fill="#451E37"/>
<path d="M4.23383 5.07497C4.23383 4.65726 4.39976 4.25666 4.69512 3.9613C4.99049 3.66593 5.39109 3.5 5.8088 3.5H18.4086C18.8263 3.5 19.2269 3.66593 19.5222 3.9613C19.8176 4.25666 19.9835 4.65726 19.9835 5.07497V24.4996H5.8088C5.39109 24.4996 4.99049 24.3337 4.69512 24.0383C4.39976 23.743 4.23383 23.3424 4.23383 22.9247V5.07497Z" stroke="#451E37" stroke-width="2.2" stroke-linejoin="round"/>
<path d="M19.9835 13.9992C19.9835 13.7207 20.0941 13.4537 20.2911 13.2568C20.488 13.0598 20.755 12.9492 21.0335 12.9492H23.1335C23.4119 12.9492 23.679 13.0598 23.8759 13.2568C24.0728 13.4537 24.1834 13.7207 24.1834 13.9992V22.924C24.1834 23.3418 24.0175 23.7423 23.7221 24.0377C23.4268 24.3331 23.0262 24.499 22.6085 24.499H19.9835V13.9992Z" stroke="#451E37" stroke-width="2.2" stroke-linejoin="round"/>
</g>
</svg>
