<svg width="29" height="28" viewBox="0 0 29 28" fill="none" xmlns="http://www.w3.org/2000/svg">
<g opacity="0.6">
<path d="M22.3755 23.4H6.0422C5.36287 23.4 4.80886 22.846 4.80886 22.1667V5.83333C4.80886 5.15401 5.36288 4.6 6.0422 4.6H22.3755C23.0548 4.6 23.6089 5.15401 23.6089 5.83333V22.1667C23.6089 22.846 23.0548 23.4 22.3755 23.4Z" stroke="#451E37" stroke-width="2.2"/>
<path d="M16.0207 13.601L11.8012 11.4913C11.5542 11.3678 11.2539 11.4679 11.1304 11.7148L8.72181 16.5311C8.59825 16.7782 8.69846 17.0786 8.9456 17.202L10.1392 17.7982C10.3862 17.9215 10.6864 17.8214 10.8099 17.5744L12.397 14.399L16.6165 16.5088C16.8635 16.6322 17.1638 16.5322 17.2873 16.2852L19.696 11.4689C19.8195 11.2219 19.7193 10.9214 19.4722 10.798L18.2785 10.2019C18.0316 10.0785 17.7313 10.1787 17.6079 10.4256L16.0207 13.601Z" fill="#451E37"/>
</g>
</svg>
