<svg width="22" height="22" viewBox="0 0 22 22" fill="none" xmlns="http://www.w3.org/2000/svg">
<path d="M3.33386 0.5C2.63767 0.5 1.96999 0.776562 1.47771 1.26884C0.985424 1.76113 0.708862 2.42881 0.708862 3.125V5.21275C0.708862 6.12275 1.18136 6.96625 1.95311 7.444L8.71861 11.6265C7.68956 12.181 6.87498 13.063 6.40396 14.1328C5.93294 15.2026 5.83242 16.399 6.11833 17.5324C6.40424 18.6659 7.06023 19.6714 7.98235 20.3898C8.90446 21.1082 10.0399 21.4983 11.2089 21.4983C12.3778 21.4983 13.5133 21.1082 14.4354 20.3898C15.3575 19.6714 16.0135 18.6659 16.2994 17.5324C16.5853 16.399 16.4848 15.2026 16.0138 14.1328C15.5427 13.063 14.7282 12.181 13.6991 11.6265L20.4646 7.444C20.8449 7.20883 21.1587 6.88043 21.3765 6.48995C21.5942 6.09947 21.7086 5.65984 21.7089 5.21275V3.125C21.7089 2.42881 21.4323 1.76113 20.94 1.26884C20.4477 0.776562 19.7801 0.5 19.0839 0.5H3.33386ZM7.70886 8.9455V2.25H14.7089V8.9455L11.6691 10.825C11.5308 10.9105 11.3715 10.9558 11.2089 10.9558C11.0463 10.9558 10.8869 10.9105 10.7486 10.825L7.70886 8.9455ZM11.2089 12.75C12.1371 12.75 13.0274 13.1187 13.6837 13.7751C14.3401 14.4315 14.7089 15.3217 14.7089 16.25C14.7089 17.1783 14.3401 18.0685 13.6837 18.7249C13.0274 19.3812 12.1371 19.75 11.2089 19.75C10.2806 19.75 9.39037 19.3812 8.73399 18.7249C8.07761 18.0685 7.70886 17.1783 7.70886 16.25C7.70886 15.3217 8.07761 14.4315 8.73399 13.7751C9.39037 13.1187 10.2806 12.75 11.2089 12.75Z" fill="url(#paint0_linear_2829_6943)"/>
<defs>
<linearGradient id="paint0_linear_2829_6943" x1="-9.79114" y1="10.9992" x2="11.2072" y2="31.9992" gradientUnits="userSpaceOnUse">
<stop stop-color="#FF92E2"/>
<stop offset="0.919792" stop-color="#932C6E"/>
</linearGradient>
</defs>
</svg>
