<svg width="23" height="20" viewBox="0 0 23 20" fill="none" xmlns="http://www.w3.org/2000/svg">
<path d="M16.2089 18.5L21.2089 10L16.2089 1.5H6.20886L1.20886 10L6.20886 18.5H16.2089Z" stroke="#451E37" stroke-width="2.2" stroke-linejoin="round"/>
<path d="M11.2089 12.7188C11.9289 12.7188 12.6194 12.4327 13.1285 11.9236C13.6377 11.4145 13.9237 10.7239 13.9237 10.0039C13.9237 9.28388 13.6377 8.59335 13.1285 8.08422C12.6194 7.57509 11.9289 7.28906 11.2089 7.28906C10.4888 7.28906 9.79831 7.57509 9.28918 8.08422C8.78005 8.59335 8.49402 9.28388 8.49402 10.0039C8.49402 10.7239 8.78005 11.4145 9.28918 11.9236C9.79831 12.4327 10.4888 12.7188 11.2089 12.7188Z" stroke="#451E37" stroke-width="2.2" stroke-linejoin="round"/>
</svg>
