<svg width="21" height="18" viewBox="0 0 21 18" fill="none" xmlns="http://www.w3.org/2000/svg">
<path fill-rule="evenodd" clip-rule="evenodd" d="M0.888743 0.148712C1.01942 0.117805 1.15542 0.117103 1.2864 0.146658L10.2085 2.1765L19.1298 0.169799C19.2585 0.142163 19.3917 0.14364 19.5198 0.174129C19.6481 0.204696 19.768 0.263657 19.8706 0.346654L19.8729 0.348472C19.977 0.430717 20.0612 0.535353 20.1193 0.65461C20.1774 0.773744 20.2079 0.904816 20.2085 1.03733L20.2084 14.9388L20.2086 14.9451C20.2136 15.1492 20.1477 15.3488 20.0221 15.5098C19.8965 15.6709 19.719 15.7834 19.5197 15.8282L10.4311 17.8732H9.98665L0.897989 15.8282C0.698766 15.7834 0.521248 15.6709 0.395651 15.5098C0.270054 15.3488 0.204217 15.1492 0.209206 14.9451L0.209284 1.03615L0.209129 1.02985C0.205828 0.895552 0.233209 0.762271 0.289187 0.640151C0.345164 0.518031 0.428263 0.41029 0.53216 0.325129C0.636056 0.239969 0.758011 0.179632 0.888743 0.148712ZM18.4422 14.2323V2.14009L11.092 3.79389V15.8861L18.4422 14.2323ZM9.32571 3.79389L1.97551 2.14009V14.2323L9.32571 15.8861V3.79389Z" fill="#451E37" stroke="#451E37" stroke-width="0.25"/>
</svg>
