<svg width="174" height="35" viewBox="0 0 174 35" fill="none" xmlns="http://www.w3.org/2000/svg">
<path d="M46.74 27.9647C45.2739 27.9588 43.8288 27.616 42.5162 26.963C41.2035 26.31 40.0585 25.3641 39.1694 24.1983C38.2803 23.0326 37.671 21.6781 37.3884 20.2395C37.1057 18.801 37.1574 17.3167 37.5394 15.9012C37.9214 14.4858 38.6235 13.177 39.5915 12.0759C40.5596 10.9748 41.7676 10.1109 43.1225 9.55077C44.4774 8.99062 45.9428 8.74922 47.4058 8.84526C48.8687 8.9413 50.29 9.3722 51.56 10.1047C52.9624 10.8992 54.1077 12.0791 54.86 13.5046L50.86 15.8647C50.4962 15.1226 49.9225 14.5036 49.21 14.0846C48.4533 13.6486 47.5933 13.4242 46.72 13.4347C46.0756 13.4147 45.4339 13.5278 44.8351 13.767C44.2364 14.0061 43.6933 14.3662 43.24 14.8246C42.3518 15.7975 41.8594 17.0673 41.8594 18.3846C41.8594 19.702 42.3518 20.9718 43.24 21.9447C43.6953 22.3999 44.2389 22.757 44.8373 22.9944C45.4358 23.2317 46.0765 23.3442 46.72 23.3247C47.6009 23.3404 48.4702 23.123 49.24 22.6947C49.958 22.2918 50.5342 21.6772 50.89 20.9347L54.96 23.2546C54.1711 24.697 52.993 25.889 51.56 26.6947C50.1033 27.542 48.4451 27.9807 46.76 27.9647H46.74Z" fill="white"/>
<path d="M66.9499 8.83472C67.8617 8.80195 68.7701 8.96331 69.6149 9.30811C70.4596 9.6529 71.2215 10.1733 71.8499 10.8347C72.5305 11.5756 73.0577 12.444 73.4009 13.3897C73.7442 14.3354 73.8968 15.3397 73.8499 16.3447V27.4648H69.0799V16.9247C69.1057 16.4213 69.0305 15.9177 68.8588 15.4437C68.687 14.9697 68.4222 14.5348 68.0799 14.1647C67.7335 13.8266 67.3213 13.5634 66.8688 13.3914C66.4164 13.2193 65.9334 13.1422 65.4499 13.1647C64.9102 13.1368 64.3707 13.224 63.8672 13.4205C63.3638 13.6171 62.9079 13.9185 62.5299 14.3047C61.7578 15.2434 61.3748 16.4423 61.4599 17.6547V27.4348H56.7799V2.07471H61.4599V11.4047C62.5699 9.70472 64.3799 8.86475 66.8699 8.86475L66.9499 8.83472Z" fill="white"/>
<path d="M81.9299 27.4546H77.2499V9.33453H81.9299V27.4546ZM79.58 7.16455C78.8229 7.15679 78.099 6.85331 77.5627 6.31891C77.0264 5.78451 76.7204 5.06157 76.71 4.30457C76.7118 3.93146 76.7878 3.56244 76.9338 3.21906C77.0797 2.87567 77.2926 2.56481 77.5599 2.30457C77.8156 2.02988 78.1252 1.81082 78.4693 1.66113C78.8134 1.51144 79.1847 1.43434 79.5599 1.43457C79.9344 1.43953 80.3041 1.51896 80.6475 1.66834C80.9908 1.81771 81.301 2.03403 81.5599 2.30457C82.0963 2.83281 82.4019 3.5518 82.41 4.30457C82.3995 5.06674 82.0893 5.79411 81.5466 6.32935C81.0038 6.86458 80.2722 7.16462 79.5099 7.16455H79.58Z" fill="white"/>
<path d="M105.74 8.83487C106.669 8.78492 107.597 8.93801 108.461 9.28341C109.324 9.62882 110.102 10.1582 110.74 10.8349C112.043 12.3344 112.713 14.281 112.61 16.2649V27.4249H107.93V16.5949C107.989 15.6781 107.703 14.7725 107.13 14.0549C106.845 13.7482 106.495 13.5085 106.106 13.3529C105.717 13.1973 105.298 13.1296 104.88 13.1549C104.414 13.1299 103.948 13.2115 103.519 13.3934C103.089 13.5753 102.706 13.8529 102.4 14.2049C101.761 15.0697 101.446 16.1315 101.51 17.2049V27.3849H96.83V16.5549C96.884 15.6388 96.5992 14.7347 96.03 14.0149C95.7445 13.7082 95.3948 13.4684 95.0058 13.3128C94.6168 13.1572 94.1982 13.0897 93.78 13.1149C93.3134 13.0934 92.8481 13.1775 92.4186 13.3611C91.9892 13.5446 91.6068 13.8228 91.2999 14.1749C90.6397 15.0307 90.3096 16.0957 90.3699 17.1749V27.3548H85.6899V9.2449H90.3699V11.1649C90.9232 10.3632 91.6743 9.71816 92.5504 9.29239C93.4265 8.86661 94.3977 8.67457 95.3699 8.73489C96.3547 8.66673 97.339 8.87495 98.2118 9.33609C99.0846 9.79723 99.8113 10.4929 100.31 11.3449C100.908 10.4809 101.72 9.78637 102.666 9.32901C103.613 8.87165 104.661 8.667 105.71 8.73489L105.74 8.83487Z" fill="white"/>
<path d="M126.13 8.83466C127.042 8.80253 127.95 8.9642 128.795 9.30896C129.639 9.65372 130.401 10.1737 131.03 10.8347C131.711 11.5756 132.238 12.4439 132.581 13.3896C132.924 14.3354 133.077 15.3397 133.03 16.3447V27.4647H128.34V16.9247C128.366 16.4212 128.291 15.9176 128.119 15.4436C127.947 14.9696 127.682 14.5348 127.34 14.1647C126.994 13.8266 126.581 13.5633 126.129 13.3913C125.676 13.2193 125.193 13.1421 124.71 13.1647C124.17 13.1367 123.631 13.2239 123.127 13.4205C122.624 13.617 122.168 13.9184 121.79 14.3047C121.018 15.2433 120.635 16.4422 120.72 17.6547V27.4347H116.08V9.32465H120.76V11.3246C121.87 9.62465 123.67 8.78467 126.17 8.78467L126.13 8.83466Z" fill="white"/>
<path d="M140.31 16.6948H149.57C149.368 15.6253 148.794 14.6618 147.95 13.9748C147.126 13.3417 146.109 13.01 145.07 13.0348C143.946 13.0019 142.845 13.3548 141.95 14.0348C141.108 14.7018 140.528 15.6433 140.31 16.6948ZM154.07 20.3148H140.39C140.99 22.5848 142.7 23.7248 145.5 23.7248C146.274 23.7727 147.048 23.6333 147.757 23.3181C148.465 23.003 149.087 22.5217 149.57 21.9148L153.34 24.0849C152.465 25.3554 151.277 26.3794 149.892 27.0589C148.507 27.7383 146.97 28.0504 145.43 27.9649C144.105 28.0248 142.782 27.8144 141.54 27.3468C140.299 26.8792 139.166 26.1641 138.21 25.2448C136.478 23.3923 135.514 20.951 135.514 18.4148C135.514 15.8787 136.478 13.4373 138.21 11.5848C139.105 10.6705 140.181 9.9535 141.369 9.47989C142.557 9.00629 143.832 8.78656 145.11 8.83481C146.34 8.78041 147.567 8.99879 148.703 9.47422C149.839 9.94965 150.855 10.6704 151.68 11.5848C153.418 13.419 154.357 15.8685 154.29 18.3948C154.278 19.0384 154.218 19.6802 154.11 20.3148H154.07Z" fill="white"/>
<path d="M164.08 21.515L168.08 9.33496H173.08L166.48 27.455C165.8 29.6682 164.494 31.6372 162.72 33.1249C161.033 34.3341 158.966 34.8919 156.9 34.695V30.405C157.962 30.485 159.019 30.203 159.9 29.6049C160.748 28.9094 161.367 27.976 161.68 26.925L154.24 9.38495H159.36L164.07 21.565L164.08 21.515Z" fill="white"/>
<g opacity="0.85">
<path fill-rule="evenodd" clip-rule="evenodd" d="M4.01075 8.79456C3.97937 9.07911 3.88274 9.35259 3.72837 9.59369C3.574 9.83478 3.36605 10.037 3.12073 10.1846C3.04474 10.1989 2.96675 10.1989 2.89075 10.1846C2.78508 10.188 2.68183 10.1524 2.60074 10.0846L2.52073 10.0246C2.30914 9.7741 2.20177 9.45192 2.22074 9.12457C2.22074 9.12457 2.22074 9.04458 2.22074 9.00458C2.22153 8.67545 2.30648 8.35199 2.4675 8.06494C2.62853 7.7779 2.86029 7.5368 3.14075 7.36456C3.56075 7.18456 3.93075 7.47459 4.04075 8.01459C4.05157 8.13434 4.05157 8.25482 4.04075 8.37457C4.05547 8.50081 4.05547 8.62834 4.04075 8.75458L4.01075 8.79456ZM13.1207 1.44458L1.22074 6.5246C0.901371 6.72749 0.640898 7.01068 0.465399 7.34589C0.2899 7.68109 0.205534 8.05651 0.220739 8.43457V11.5146C0.220739 12.3346 0.660739 12.8346 1.22074 12.6246L13.1307 7.9646V1.43457L13.1207 1.44458Z" fill="white"/>
<path fill-rule="evenodd" clip-rule="evenodd" d="M7.14071 11.8747L0.9107 14.2547C0.687853 14.3901 0.505947 14.5835 0.384424 14.8142C0.262901 15.045 0.206319 15.3044 0.220697 15.5647V19.5647C0.220697 20.1447 0.5307 20.5047 0.9107 20.3747L7.14071 18.2247C7.37789 18.0905 7.57341 17.8935 7.70574 17.6553C7.83808 17.4171 7.90209 17.147 7.89071 16.8747V12.7247C7.89071 12.0747 7.55071 11.7147 7.14071 11.8747Z" fill="white"/>
<path fill-rule="evenodd" clip-rule="evenodd" d="M13.1306 9.58447V16.1144L11.0606 16.8245C10.4506 17.0345 9.96063 16.5045 9.96063 15.6345V12.3745C9.94572 11.9727 10.0402 11.5745 10.2339 11.2222C10.4277 10.87 10.7134 10.577 11.0606 10.3745L13.1306 9.59442V9.58447Z" fill="white"/>
<path fill-rule="evenodd" clip-rule="evenodd" d="M4.01077 24.2746C3.9853 24.5491 3.89017 24.8126 3.73443 25.0401C3.57869 25.2676 3.36746 25.4516 3.12075 25.5746C3.0444 25.5845 2.96712 25.5845 2.89077 25.5746C2.78404 25.5587 2.68372 25.5137 2.60076 25.4446L2.52075 25.3746C2.31217 25.1146 2.20552 24.7876 2.22076 24.4547C2.22076 24.4547 2.22076 24.3747 2.22076 24.3347C2.21613 24.0152 2.29951 23.7006 2.46179 23.4255C2.62407 23.1503 2.859 22.9251 3.14077 22.7746C3.56077 22.6346 3.93077 22.9446 4.04077 23.5046C4.05159 23.6243 4.05159 23.7449 4.04077 23.8647C4.05549 23.9909 4.05549 24.1185 4.04077 24.2447L4.01077 24.2746ZM13.1208 17.7446L1.21075 21.7447C0.893424 21.9274 0.632356 22.1938 0.45602 22.5147C0.279683 22.8356 0.194846 23.1988 0.21075 23.5646V26.6546C0.21075 27.4746 0.65075 28.0147 1.21075 27.8447L13.1208 24.2646V17.7446Z" fill="white"/>
</g>
<g opacity="0.9">
<path fill-rule="evenodd" clip-rule="evenodd" d="M25.3307 21.8545L19.1108 19.7545C18.6908 19.6245 18.3608 19.9945 18.3608 20.5945V24.7445C18.343 25.0138 18.4046 25.2823 18.5379 25.5169C18.6712 25.7515 18.8704 25.9419 19.1108 26.0645L25.3307 27.9345C25.7107 28.0445 26.0207 27.6745 26.0207 27.0945V23.0945C26.0363 22.8381 25.9799 22.5824 25.858 22.3562C25.7361 22.1301 25.5535 21.9425 25.3307 21.8145V21.8545Z" fill="white"/>
<path fill-rule="evenodd" clip-rule="evenodd" d="M13.1207 17.7446V24.2646L15.1907 24.8846C15.7907 25.0646 16.2907 24.5146 16.2907 23.6446V20.4346C16.3173 20.0311 16.2278 19.6283 16.0329 19.2739C15.838 18.9196 15.5458 18.6283 15.1907 18.4346L13.1207 17.7446Z" fill="white"/>
<path fill-rule="evenodd" clip-rule="evenodd" d="M23.7508 17.7347C23.73 17.7605 23.7065 17.784 23.6808 17.8047C23.5963 17.8746 23.4903 17.9134 23.3807 17.9147C23.3052 17.9338 23.2262 17.9338 23.1507 17.9147C22.902 17.7828 22.6897 17.5914 22.5327 17.3576C22.3757 17.1238 22.2788 16.855 22.2508 16.5748C22.2405 16.4483 22.2405 16.3212 22.2508 16.1948C22.24 16.0783 22.24 15.9611 22.2508 15.8447C22.3508 15.2947 22.7207 14.9848 23.1507 15.1448C23.4307 15.3076 23.663 15.5411 23.8245 15.8218C23.9859 16.1026 24.0708 16.4209 24.0707 16.7448V16.8748C24.0769 17.1916 23.9626 17.499 23.7508 17.7347ZM21.1007 16.7847L21.0207 16.8547C20.9317 16.9234 20.8231 16.9619 20.7107 16.9648C20.6352 16.9838 20.5562 16.9838 20.4807 16.9648C20.2265 16.8312 20.0089 16.6373 19.8468 16.4003C19.6847 16.1632 19.583 15.8901 19.5508 15.6047C19.5408 15.4749 19.5408 15.3446 19.5508 15.2148C19.5399 15.095 19.5399 14.9745 19.5508 14.8547C19.6608 14.2947 20.0407 13.9847 20.4807 14.1547C20.7667 14.3175 21.0044 14.5532 21.1695 14.8378C21.3347 15.1224 21.4214 15.4457 21.4207 15.7748C21.4253 15.818 21.4253 15.8615 21.4207 15.9047C21.4439 16.2387 21.3363 16.5686 21.1208 16.8248L21.1007 16.7847ZM25.0407 14.1448L13.1307 9.59473V16.1147L25.0407 20.2347C25.5907 20.4247 26.0407 19.9148 26.0407 19.0848V16.0048C26.0642 15.6323 25.983 15.2607 25.8062 14.932C25.6295 14.6033 25.3644 14.3306 25.0407 14.1448Z" fill="white"/>
<path fill-rule="evenodd" clip-rule="evenodd" d="M25.3308 6.65434L19.1108 3.99436C18.6908 3.82436 18.3608 4.16439 18.3608 4.77439V8.92436C18.3483 9.20087 18.4116 9.47553 18.5437 9.71873C18.6759 9.96193 18.872 10.1644 19.1108 10.3044L25.3308 12.7344C25.7108 12.8844 26.0208 12.5344 26.0208 11.9544V7.95439C26.0253 7.697 25.9643 7.44269 25.8436 7.21531C25.723 6.98793 25.5465 6.79487 25.3308 6.65434Z" fill="white"/>
<path fill-rule="evenodd" clip-rule="evenodd" d="M13.1207 1.43457V7.95459L15.1907 8.76459C15.7907 9.00459 16.2907 8.49457 16.2907 7.62457V4.35455C16.2934 3.95501 16.1937 3.56146 16.0011 3.21136C15.8086 2.86127 15.5296 2.56628 15.1907 2.35455L13.1207 1.43457Z" fill="white"/>
</g>
</svg>
