<svg width="16" height="13" viewBox="0 0 16 13" fill="none" xmlns="http://www.w3.org/2000/svg">
<path d="M13.4589 0.473633H2.95886C2.36213 0.473633 1.78983 0.710686 1.36787 1.13264C0.945915 1.5546 0.708862 2.1269 0.708862 2.72363V10.2236C0.708862 10.8204 0.945915 11.3927 1.36787 11.8146C1.78983 12.2366 2.36213 12.4736 2.95886 12.4736H13.4589C14.0556 12.4736 14.6279 12.2366 15.0499 11.8146C15.4718 11.3927 15.7089 10.8204 15.7089 10.2236V2.72363C15.7089 2.1269 15.4718 1.5546 15.0499 1.13264C14.6279 0.710686 14.0556 0.473633 13.4589 0.473633ZM2.95886 1.97363H13.4589C13.6578 1.97363 13.8485 2.05265 13.9892 2.1933C14.1298 2.33396 14.2089 2.52472 14.2089 2.72363L8.20886 6.38363L2.20886 2.72363C2.20886 2.52472 2.28788 2.33396 2.42853 2.1933C2.56918 2.05265 2.75995 1.97363 2.95886 1.97363ZM14.2089 10.2236C14.2089 10.4225 14.1298 10.6133 13.9892 10.754C13.8485 10.8946 13.6578 10.9736 13.4589 10.9736H2.95886C2.75995 10.9736 2.56918 10.8946 2.42853 10.754C2.28788 10.6133 2.20886 10.4225 2.20886 10.2236V4.43363L7.81886 7.86113C7.93288 7.92696 8.06221 7.96161 8.19386 7.96161C8.32551 7.96161 8.45485 7.92696 8.56886 7.86113L14.2089 4.43363V10.2236Z" fill="#90939E"/>
</svg>
