<svg width="627" height="495" viewBox="0 0 627 495" fill="none" xmlns="http://www.w3.org/2000/svg">
<g filter="url(#filter0_d_1443_20337)">
<rect x="160.418" y="28.9473" width="414" height="414" rx="207" fill="#202127"/>
<rect x="160.418" y="28.9473" width="414" height="414" rx="207" fill="#270E1E"/>
<rect x="161.418" y="29.9473" width="412" height="412" rx="206" stroke="url(#paint0_linear_1443_20337)" stroke-width="2"/>
</g>
<g filter="url(#filter1_d_1443_20337)">
<g opacity="0.7">
<path fill-rule="evenodd" clip-rule="evenodd" d="M329.294 211.476C329.163 212.656 328.759 213.791 328.113 214.791C327.468 215.791 326.599 216.63 325.573 217.242C325.256 217.301 324.93 217.301 324.612 217.242C324.17 217.256 323.739 217.108 323.4 216.827L323.065 216.578C322.181 215.539 321.732 214.203 321.811 212.845C321.811 212.845 321.811 212.513 321.811 212.347C321.815 210.982 322.17 209.64 322.843 208.45C323.516 207.259 324.485 206.259 325.657 205.544C327.413 204.798 328.959 206.001 329.419 208.241C329.465 208.737 329.465 209.237 329.419 209.734C329.481 210.258 329.481 210.787 329.419 211.31L329.294 211.476ZM317.631 202.06C316.296 202.902 315.207 204.077 314.473 205.467C313.74 206.857 313.387 208.415 313.451 209.983V222.758C313.451 226.16 315.29 228.234 317.631 227.363L367.418 208.024V180.947L317.631 202.06Z" fill="#451E37"/>
<path fill-rule="evenodd" clip-rule="evenodd" d="M342.378 224.252L316.335 234.124C315.403 234.686 314.643 235.488 314.135 236.445C313.627 237.402 313.39 238.478 313.451 239.558V256.15C313.451 258.556 314.746 260.049 316.335 259.51L342.378 250.592C343.369 250.035 344.187 249.218 344.74 248.23C345.293 247.242 345.561 246.121 345.513 244.992V227.778C345.513 225.082 344.092 223.589 342.378 224.252Z" fill="#451E37"/>
<path fill-rule="evenodd" clip-rule="evenodd" d="M367.417 214.752V241.838L358.764 244.783C356.214 245.654 354.166 243.456 354.166 239.847V226.325C354.104 224.659 354.498 223.007 355.308 221.546C356.118 220.085 357.313 218.869 358.764 218.029L367.417 214.794V214.752Z" fill="#451E37"/>
<path fill-rule="evenodd" clip-rule="evenodd" d="M329.294 275.686C329.188 276.825 328.79 277.918 328.139 278.861C327.488 279.805 326.605 280.568 325.574 281.079C325.254 281.119 324.931 281.119 324.612 281.079C324.166 281.012 323.747 280.826 323.4 280.539L323.065 280.249C322.193 279.17 321.748 277.814 321.811 276.433C321.811 276.433 321.811 276.101 321.811 275.935C321.792 274.61 322.141 273.305 322.819 272.164C323.497 271.023 324.479 270.089 325.657 269.464C327.413 268.883 328.96 270.169 329.419 272.492C329.465 272.989 329.465 273.489 329.419 273.986C329.481 274.509 329.481 275.038 329.419 275.562L329.294 275.686ZM367.376 248.6L317.589 265.192C316.263 265.95 315.171 267.055 314.434 268.386C313.697 269.717 313.343 271.224 313.409 272.741V285.558C313.409 288.959 315.248 291.2 317.589 290.494L367.376 275.645V248.6Z" fill="#451E37"/>
</g>
<path fill-rule="evenodd" clip-rule="evenodd" d="M418.433 265.648L392.432 256.937C390.677 256.398 389.297 257.933 389.297 260.421V277.635C389.223 278.752 389.48 279.866 390.038 280.839C390.595 281.812 391.427 282.602 392.432 283.11L418.433 290.867C420.022 291.323 421.318 289.789 421.318 287.383V270.791C421.383 269.727 421.147 268.667 420.637 267.729C420.128 266.791 419.364 266.013 418.433 265.482V265.648Z" fill="#451E37"/>
<path fill-rule="evenodd" clip-rule="evenodd" d="M367.392 248.6V275.645L376.046 278.216C378.554 278.963 380.644 276.682 380.644 273.073V259.758C380.755 258.084 380.381 256.414 379.566 254.944C378.751 253.474 377.53 252.266 376.046 251.462L367.392 248.6Z" fill="#451E37"/>
<path fill-rule="evenodd" clip-rule="evenodd" d="M411.829 248.559C411.742 248.666 411.644 248.764 411.536 248.85C411.183 249.139 410.74 249.3 410.282 249.306C409.966 249.385 409.636 249.385 409.32 249.306C408.28 248.758 407.393 247.965 406.737 246.995C406.08 246.025 405.676 244.91 405.558 243.748C405.515 243.223 405.515 242.696 405.558 242.172C405.513 241.689 405.513 241.203 405.558 240.72C405.976 238.438 407.523 237.153 409.32 237.816C410.491 238.492 411.462 239.46 412.137 240.625C412.812 241.789 413.167 243.109 413.166 244.453V244.992C413.192 246.306 412.714 247.581 411.829 248.559ZM400.751 244.619L400.416 244.909C400.044 245.194 399.59 245.354 399.12 245.366C398.805 245.445 398.475 245.445 398.159 245.366C397.096 244.811 396.187 244.007 395.509 243.024C394.831 242.041 394.406 240.908 394.271 239.724C394.23 239.186 394.23 238.645 394.271 238.107C394.226 237.61 394.226 237.11 394.271 236.613C394.731 234.29 396.32 233.004 398.159 233.71C399.355 234.385 400.348 235.363 401.038 236.543C401.729 237.724 402.091 239.065 402.089 240.429C402.108 240.609 402.108 240.789 402.089 240.968C402.185 242.354 401.736 243.722 400.834 244.785L400.751 244.619ZM417.221 233.668L367.385 214.795V241.84L417.221 258.929C419.52 259.717 421.401 257.602 421.401 254.159V241.383C421.499 239.838 421.16 238.297 420.421 236.934C419.682 235.57 418.574 234.439 417.221 233.668Z" fill="#451E37"/>
<path fill-rule="evenodd" clip-rule="evenodd" d="M418.433 202.598L392.432 191.565C390.677 190.86 389.297 192.27 389.297 194.801V212.014C389.245 213.161 389.509 214.301 390.062 215.309C390.614 216.318 391.434 217.158 392.432 217.739L418.433 227.818C420.022 228.44 421.318 226.989 421.318 224.583V207.991C421.336 206.923 421.082 205.869 420.577 204.925C420.073 203.982 419.335 203.181 418.433 202.598Z" fill="#451E37"/>
<path fill-rule="evenodd" clip-rule="evenodd" d="M367.392 180.947V207.992L376.046 211.352C378.554 212.347 380.644 210.232 380.644 206.623V193.059C380.655 191.402 380.238 189.769 379.433 188.317C378.628 186.865 377.462 185.641 376.046 184.763L367.392 180.947Z" fill="#451E37"/>
</g>
<defs>
<filter id="filter0_d_1443_20337" x="132.418" y="0.947266" width="494" height="494" filterUnits="userSpaceOnUse" color-interpolation-filters="sRGB">
<feFlood flood-opacity="0" result="BackgroundImageFix"/>
<feColorMatrix in="SourceAlpha" type="matrix" values="0 0 0 0 0 0 0 0 0 0 0 0 0 0 0 0 0 0 127 0" result="hardAlpha"/>
<feOffset dx="12" dy="12"/>
<feGaussianBlur stdDeviation="20"/>
<feColorMatrix type="matrix" values="0 0 0 0 0 0 0 0 0 0 0 0 0 0 0 0 0 0 0.6 0"/>
<feBlend mode="normal" in2="BackgroundImageFix" result="effect1_dropShadow_1443_20337"/>
<feBlend mode="normal" in="SourceGraphic" in2="effect1_dropShadow_1443_20337" result="shape"/>
</filter>
<filter id="filter1_d_1443_20337" x="295.401" y="162.947" width="168.017" height="170" filterUnits="userSpaceOnUse" color-interpolation-filters="sRGB">
<feFlood flood-opacity="0" result="BackgroundImageFix"/>
<feColorMatrix in="SourceAlpha" type="matrix" values="0 0 0 0 0 0 0 0 0 0 0 0 0 0 0 0 0 0 127 0" result="hardAlpha"/>
<feOffset dx="12" dy="12"/>
<feGaussianBlur stdDeviation="15"/>
<feColorMatrix type="matrix" values="0 0 0 0 0 0 0 0 0 0 0 0 0 0 0 0 0 0 0.15 0"/>
<feBlend mode="normal" in2="BackgroundImageFix" result="effect1_dropShadow_1443_20337"/>
<feBlend mode="normal" in="SourceGraphic" in2="effect1_dropShadow_1443_20337" result="shape"/>
</filter>
<linearGradient id="paint0_linear_1443_20337" x1="-46.5823" y1="235.947" x2="367.418" y2="649.947" gradientUnits="userSpaceOnUse">
<stop stop-color="#FF92E2"/>
<stop offset="0.919792" stop-color="#932C6E"/>
</linearGradient>
</defs>
</svg>
